<svg enable-background="new 0 0 22 22" height="22" viewBox="0 0 22 22" width="22" xmlns="http://www.w3.org/2000/svg"><path d="m11 0c-5.7 0-10.3 4.9-10.3 11s4.6 11 10.3 11 10.3-4.9 10.3-11-4.6-11-10.3-11zm-3 1.5c-.7.9-1.4 2.1-1.8 3.5-.7-.2-1.4-.4-2-.7 1-1.3 2.3-2.2 3.8-2.8zm-4.5 3.6c.7.3 1.5.6 2.4.8-.4 1.4-.6 2.9-.6 4.6h-3.6c.1-2 .8-3.9 1.8-5.4zm0 11.8c-1-1.5-1.7-3.4-1.8-5.4h3.5c0 1.7.3 3.2.6 4.6-.8.2-1.6.5-2.3.8zm.6.8c.6-.3 1.3-.5 2-.7.5 1.4 1.1 2.6 1.9 3.4-1.5-.5-2.8-1.4-3.9-2.7zm6.4 3.2c-1.4-.3-2.6-1.9-3.3-4.1 1.1-.2 2.2-.3 3.3-.3zm0-5.4c-1.3 0-2.5.1-3.6.4-.4-1.3-.6-2.8-.6-4.4h4.3v4zm0-5h-4.3c0-1.6.3-3.1.6-4.4 1.2.3 2.4.4 3.7.4zm0-5c-1.2 0-2.3-.1-3.3-.3.8-2.2 2-3.8 3.3-4.1zm8-.4c1 1.5 1.7 3.4 1.8 5.4h-3.5c0-1.7-.3-3.2-.6-4.6.8-.2 1.6-.5 2.3-.8zm-.6-.8c-.6.3-1.3.5-2 .7-.5-1.4-1.1-2.6-1.9-3.4 1.5.5 2.8 1.4 3.9 2.7zm-6.4-3.2c1.4.3 2.6 1.9 3.3 4.1-1.1.2-2.2.3-3.3.3zm0 5.4c1.3 0 2.5-.2 3.6-.4.4 1.3.6 2.8.6 4.4h-4.3v-4zm0 5h4.3c0 1.6-.3 3.1-.6 4.4-1.1-.2-2.4-.3-3.6-.4v-4zm0 9.4v-4.4c1.2 0 2.3.1 3.3.3-.7 2.3-1.9 3.8-3.3 4.1zm2.5-.4c.8-.9 1.4-2 1.9-3.4.7.2 1.4.4 2 .7-1.1 1.2-2.4 2.1-3.9 2.7zm4.5-3.6c-.7-.3-1.5-.6-2.4-.8.4-1.4.6-2.9.6-4.6h3.5c0 2-.7 3.9-1.7 5.4z" fill="#568199"/></svg>